# File created by Blade
# Date/Time:  Tue Sep 30 19:33:40 2014
#---------------------------------------------------------
:version 1.10
:name HOM
:units
  mass 1.0
  length 1.000000
  angle deg
:documentation
     Acclaim Skeleton File
:root
   axis xyz
   order TX TY TZ RX RY RZ
   position 0.000000 0.000000 0.000000
   orientation 0 0 0
:bonedata
   begin
      id 1
      name Spine_dum
      direction 0.000000 1.000000 0.000000
      length 3.241213
      axis 0.0 0.0 0.0 xyz
   end
   begin
      id 2
      name LeftUpLeg_dum
      direction 1.000000 0.000000 0.000000
      length 3.434019
      axis 0.0 0.0 0.0 xyz
   end
   begin
      id 3
      name RightUpLeg_dum
      direction -1.000000 0.000000 0.000000
      length 3.434019
      axis 0.0 0.0 0.0 xyz
   end
   begin
      id 4
      name Spine
      direction 0.000000 1.000000 0.000000
      length 0.000000
      axis 0.0 0.0 0.0 xyz
      dof rx ry rz
   end
   begin
      id 5
      name Spine_dum1
      direction 0.000000 1.000000 0.000000
      length 18.382958
      axis 0.0 0.0 0.0 xyz
   end
   begin
      id 6
      name Spine_dum2
      direction 0.000000 1.000000 0.000000
      length 12.828261
      axis 0.0 0.0 0.0 xyz
   end
   begin
      id 7
      name Spine_dum3
      direction 0.000000 1.000000 0.000000
      length 12.828261
      axis 0.0 0.0 0.0 xyz
   end
   begin
      id 8
      name Head
      direction 0.000000 1.000000 0.000000
      length 4.527550
      axis 0.0 0.0 0.0 xyz
      dof rx ry rz
   end
   begin
      id 9
      name LeftShoulder
      direction 1.000000 0.000000 0.000000
      length 7.748055
      axis 0.0 0.0 -90.0 xyz
      dof rx ry rz
   end
   begin
      id 10
      name LeftArm
      direction 1.000000 0.000000 0.000000
      length 10.635614
      axis 0.0 0.0 -90.0 xyz
      dof rx ry rz
   end
   begin
      id 11
      name LeftForeArm
      direction 1.000000 0.000000 0.000000
      length 8.346755
      axis 0.0 0.0 -90.0 xyz
      dof ry rz rx
   end
   begin
      id 12
      name LeftHand
      direction 0.000000 0.000000 0.000000
      length 0.000000
      axis 0.0 0.0 -90.0 xyz
      dof rx ry rz
   end
   begin
      id 13
      name LeftHand_dum1
      direction 0.000000 0.000000 0.000000
      length 0.000000
      axis 0.0 0.0 -90.0 xyz
   end
   begin
      id 14
      name LeftHand_dum2
      direction 1.000000 0.000000 0.000000
      length 3.937000
      axis 0.0 0.0 -90.0 xyz
   end
   begin
      id 15
      name LeftHandThumb1
      direction 0.000000 0.000000 1.000000
      length 3.937000
      axis 0.0 0.0 -90.0 xyz
      dof rx rz ry
   end
   begin
      id 16
      name RightShoulder
      direction -1.000000 0.000000 0.000000
      length 7.748055
      axis 0.0 0.0 90.0 xyz
      dof rx ry rz
   end
   begin
      id 17
      name RightArm
      direction -1.000000 0.000000 0.000000
      length 10.635614
      axis 0.0 0.0 90.0 xyz
      dof rx ry rz
   end
   begin
      id 18
      name RightForeArm
      direction -1.000000 0.000000 0.000000
      length 8.346755
      axis 0.0 0.0 90.0 xyz
      dof ry rz rx
   end
   begin
      id 19
      name RightHand
      direction 0.000000 0.000000 0.000000
      length 0.000000
      axis 0.0 0.0 90.0 xyz
      dof rx ry rz
   end
   begin
      id 20
      name RightHand_dum1
      direction 0.000000 0.000000 0.000000
      length 0.000000
      axis 0.0 0.0 90.0 xyz
   end
   begin
      id 21
      name RightHand_dum2
      direction -1.000000 0.000000 0.000000
      length 3.937000
      axis 0.0 0.0 90.0 xyz
   end
   begin
      id 22
      name RightHandThumb1
      direction 0.000000 0.000000 1.000000
      length 3.937000
      axis 0.0 0.0 90.0 xyz
      dof rx rz ry
   end
   begin
      id 23
      name LeftUpLeg
      direction 0.000000 -1.000000 0.000000
      length 15.713025
      axis 0.0 0.0 0.0 xyz
      dof rx ry rz
   end
   begin
      id 24
      name LeftLeg
      direction 0.000000 -1.000000 0.000000
      length 14.435119
      axis 0.0 0.0 0.0 xyz
      dof rx ry rz
   end
   begin
      id 25
      name LeftFoot
      direction 0.000000 -0.258819 0.965926
      length 4.938895
      axis 15.0 0.0 0.0 xyz
      dof rx ry rz
   end
   begin
      id 26
      name LeftToeBase
      direction 0.000000 0.000000 1.000000
      length 2.952750
      axis 0.0 0.0 0.0 xyz
      dof rx ry rz
   end
   begin
      id 27
      name RightUpLeg
      direction 0.000000 -1.000000 0.000000
      length 15.713025
      axis 0.0 0.0 0.0 xyz
      dof rx ry rz
   end
   begin
      id 28
      name RightLeg
      direction 0.000000 -1.000000 0.000000
      length 14.435119
      axis 0.0 0.0 0.0 xyz
      dof rx ry rz
   end
   begin
      id 29
      name RightFoot
      direction 0.000000 -0.258819 0.965926
      length 4.938895
      axis 15.0 0.0 0.0 xyz
      dof rx ry rz
   end
   begin
      id 30
      name RightToeBase
      direction 0.000000 0.000000 1.000000
      length 2.952750
      axis 0.0 0.0 0.0 xyz
      dof rx ry rz
   end
:hierarchy
   begin
      root Spine_dum LeftUpLeg_dum RightUpLeg_dum
      Spine_dum Spine
      LeftUpLeg_dum LeftUpLeg
      RightUpLeg_dum RightUpLeg
      Spine Spine_dum1 Spine_dum2 Spine_dum3
      Spine_dum1 Head
      Spine_dum2 LeftShoulder
      Spine_dum3 RightShoulder
      LeftShoulder LeftArm
      LeftArm LeftForeArm
      LeftForeArm LeftHand
      LeftHand LeftHand_dum1 LeftHand_dum2
      LeftHand_dum1 LeftHandThumb1
      RightShoulder RightArm
      RightArm RightForeArm
      RightForeArm RightHand
      RightHand RightHand_dum1 RightHand_dum2
      RightHand_dum1 RightHandThumb1
      LeftUpLeg LeftLeg
      LeftLeg LeftFoot
      LeftFoot LeftToeBase
      RightUpLeg RightLeg
      RightLeg RightFoot
      RightFoot RightToeBase
   end

# File created by Blade
# Date/Time:  Mon Sep 22 21:09:19 2014
# Frame Rate: 120.000 fps
#------------------------------------------------------
:FULLY-SPECIFIED
:DEGREES
1016
root -2.798548 32.157635 -4.891649 1.164660 49.754245 -30.167178
Spine -24.791031 -13.769590 24.832734
Head -5.762576 15.700135 3.700731
LeftShoulder 3.400265 44.779724 23.328684
LeftArm 77.056652 18.351602 -47.919056
LeftForeArm -31.995485 -0.000000 72.302853
LeftHand -4.304628 -0.000000 -24.666872
LeftHandThumb1 -26.253704 0.000000 33.147579
RightShoulder 2.610822 -46.051651 -26.512032
RightArm 72.715331 -15.590268 45.746315
RightForeArm 64.623392 -0.000000 76.831894
RightHand 3.652288 -0.000000 18.118156
RightHandThumb1 -24.326973 -0.000000 -32.862282
LeftUpLeg -41.227396 9.059888 9.669056
LeftLeg 33.787878 -0.000000 -0.000000
LeftFoot -20.839059 2.952539 1.753272
LeftToeBase 5.441041 -0.000000 -0.000000
RightUpLeg -155.982061 4.105693 16.407170
RightLeg 86.295846 -0.000000 -0.000000
RightFoot 42.577111 -16.956594 8.843011
RightToeBase 48.634898 -0.000000 -0.000000
1017
root -2.801271 32.156115 -4.914364 1.093552 49.876663 -30.253953
Spine -24.862806 -14.053556 25.012023
Head -5.646238 15.746503 3.589271
LeftShoulder 3.511983 44.689169 23.183814
LeftArm 77.331677 18.132044 -47.893425
LeftForeArm -31.253429 -0.000000 71.996484
LeftHand -4.515063 -0.000000 -23.868328
LeftHandThumb1 -26.253704 0.000000 33.147579
RightShoulder 2.638862 -46.050281 -26.562791
RightArm 72.806101 -15.603249 45.746149
RightForeArm 65.080750 -0.000000 76.637808
RightHand 3.854769 0.000000 17.395409
RightHandThumb1 -24.326973 -0.000000 -32.862282
LeftUpLeg -41.317415 9.177925 9.590139
LeftLeg 33.810342 -0.000000 -0.000000
LeftFoot -20.875916 2.614074 1.693153
LeftToeBase 5.586063 -0.000000 -0.000000
RightUpLeg -156.175936 4.032629 16.708206
RightLeg 85.218281 -0.000000 -0.000000
RightFoot 42.541446 -16.928986 8.840064
RightToeBase 48.596808 -0.000000 -0.000000
1018
root -2.807193 32.158851 -4.935327 1.039547 49.987727 -30.372264
Spine -24.987784 -14.295707 25.190856
Head -5.476297 15.749260 3.521363
LeftShoulder 3.600698 44.530328 23.063829
LeftArm 77.660462 17.968065 -47.917153
LeftForeArm -30.648325 -0.000000 71.636870
LeftHand -4.949833 -0.000000 -23.128970
LeftHandThumb1 -26.253704 0.000000 33.147579
RightShoulder 2.661875 -46.092187 -26.523659
RightArm 72.926181 -15.495104 45.807076
RightForeArm 65.266969 -0.000000 76.353073
RightHand 3.871103 -0.000000 17.024715
RightHandThumb1 -24.326973 -0.000000 -32.862282
LeftUpLeg -41.438579 9.228765 9.574098
LeftLeg 33.819364 -0.000000 -0.000000
LeftFoot -20.851456 2.370184 1.624508
LeftToeBase 5.610958 -0.000000 -0.000000
RightUpLeg -156.354794 3.985568 17.026002
RightLeg 84.088285 -0.000000 -0.000000
RightFoot 42.603443 -16.841531 8.802470
RightToeBase 48.610450 -0.000000 -0.000000
1019
root -2.812240 32.164612 -4.956741 0.988868 50.113415 -30.529938
Spine -25.158019 -14.510844 25.391738
Head -5.298240 15.711086 3.476699
LeftShoulder 3.678124 44.330152 22.966226
LeftArm 78.037460 17.859114 -48.019429
LeftForeArm -30.059627 -0.000000 71.245283
LeftHand -5.420783 -0.000000 -22.819660
LeftHandThumb1 -26.253704 0.000000 33.147579
RightShoulder 2.703787 -46.136693 -26.532961
RightArm 73.055291 -15.320073 45.842576
RightForeArm 65.051960 -0.000000 76.017176
RightHand 3.964411 -0.000000 16.994960
RightHandThumb1 -24.326973 -0.000000 -32.862282
LeftUpLeg -41.591699 9.221896 9.599447
LeftLeg 33.819324 -0.000000 -0.000000
LeftFoot -20.800545 2.189913 1.547515
LeftToeBase 5.685534 -0.000000 -0.000000
RightUpLeg -156.539243 3.910062 17.324547
RightLeg 82.966445 -0.000000 -0.000000
RightFoot 42.600350 -16.691948 8.814786
RightToeBase 48.715061 -0.000000 -0.000000
1020
root -2.820302 32.171556 -4.973780 0.841353 50.198889 -30.715897
Spine -25.234109 -14.665076 25.534103
Head -5.114925 15.575718 3.492730
LeftShoulder 3.835265 44.094523 22.928126
LeftArm 78.550475 17.731441 -47.889687
LeftForeArm -29.518887 -0.000000 70.808175
LeftHand -5.518237 -0.000000 -22.542415
LeftHandThumb1 -26.253704 0.000000 33.147579
RightShoulder 2.700607 -46.130312 -26.476453
RightArm 73.089341 -15.105499 46.070805
RightForeArm 64.441652 -0.000000 75.688260
RightHand 3.627415 -0.000000 17.391153
RightHandThumb1 -24.326973 -0.000000 -32.862282
LeftUpLeg -41.680179 9.272119 9.652969
LeftLeg 33.856309 -0.000000 -0.000000
LeftFoot -20.694601 1.999019 1.600308
LeftToeBase 5.604690 -0.000000 -0.000000
RightUpLeg -156.604991 3.831183 17.596693
RightLeg 81.780435 -0.000000 -0.000000
RightFoot 42.801142 -16.466447 8.813163
RightToeBase 48.669563 -0.000000 -0.000000
1021
root -2.828682 32.178949 -4.985195 0.609846 50.268820 -30.984632
Spine -25.316493 -14.821631 25.719974
Head -4.847180 15.447912 3.529868
LeftShoulder 4.020239 43.856680 22.933254
LeftArm 78.989658 17.589490 -47.874723
LeftForeArm -29.424783 -0.000000 70.334922
LeftHand -5.957537 0.000000 -22.363477
LeftHandThumb1 -26.253704 0.000000 33.147579
RightShoulder 2.831215 -46.115912 -26.499910
RightArm 73.121609 -14.888080 46.191382
RightForeArm 64.689967 0.000000 75.502934
RightHand 4.095804 -0.000000 17.045253
RightHandThumb1 -24.326973 -0.000000 -32.862282
LeftUpLeg -41.750951 9.313726 9.788643
LeftLeg 33.926047 -0.000000 -0.000000
LeftFoot -20.615294 1.778022 1.630935
LeftToeBase 5.550258 -0.000000 -0.000000
RightUpLeg -156.632132 3.712587 17.843841
RightLeg 80.603972 -0.000000 -0.000000
RightFoot 43.031435 -16.070743 8.752753
RightToeBase 48.596925 -0.000000 -0.000000
1022
root -2.838307 32.186529 -4.990076 0.299117 50.317984 -31.296009
Spine -25.356182 -15.012442 25.897565
Head -4.591916 15.289675 3.623792
LeftShoulder 4.210233 43.660758 23.013228
LeftArm 79.374503 17.467267 -47.950084
LeftForeArm -29.766057 0.000000 69.973063
LeftHand -6.418649 -0.000000 -22.359604
LeftHandThumb1 -26.253704 0.000000 33.147579
RightShoulder 3.082031 -46.112084 -26.544656
RightArm 73.101610 -14.607721 46.396130
RightForeArm 64.677390 -0.000000 75.394287
RightHand 4.267139 -0.000000 17.024558
RightHandThumb1 -24.326973 -0.000000 -32.862282
LeftUpLeg -41.768785 9.377617 9.973831
LeftLeg 34.011583 -0.000000 -0.000000
LeftFoot -20.665767 1.504170 1.458590
LeftToeBase 5.717941 -0.000000 -0.000000
RightUpLeg -156.581500 3.558158 18.069516
RightLeg 79.412493 -0.000000 -0.000000
RightFoot 43.260097 -15.490374 8.673162
RightToeBase 48.459943 -0.000000 -0.000000
